<svg width="200" height="41" viewBox="0 0 200 41" fill="none" xmlns="http://www.w3.org/2000/svg">
<path d="M29.9254 18.1927C28.7971 19.3279 28.2332 20.9069 28.3872 22.5001L28.3607 22.4736C28.519 24.3484 27.8427 26.1977 26.5123 27.5281C25.1818 28.8585 23.3326 29.5348 21.4577 29.3765L21.4842 29.403C19.2142 29.1917 17.0555 30.4265 16.0867 32.4902C15.118 34.554 15.5473 37.0036 17.1601 38.6149C18.7729 40.2262 21.2228 40.6533 23.2857 39.6827C25.3486 38.7121 26.5814 36.5522 26.368 34.2824L26.396 34.3089C26.2377 32.4341 26.914 30.5848 28.2444 29.2544C29.5748 27.924 31.4241 27.2477 33.2989 27.4059L33.271 27.3795C35.7658 27.6038 38.0872 26.0827 38.8774 23.7057C39.6676 21.3287 38.719 18.7205 36.5864 17.4065C34.4538 16.0925 31.6976 16.4181 29.9298 18.1927H29.9254Z" fill="#5454D4"/>
<path d="M19.0769 25.9353L19.0489 25.9088C20.6431 26.0695 22.2252 25.5057 23.3586 24.3732C24.492 23.2407 25.0569 21.659 24.8974 20.0647L24.9254 20.0912C24.7671 18.2164 25.4434 16.3671 26.7738 15.0367C28.1042 13.7063 29.9535 13.03 31.8283 13.1883L31.8004 13.1618C34.0706 13.375 36.2306 12.1416 37.2009 10.0781C38.1711 8.01466 37.743 5.56436 36.1307 3.95204C34.5184 2.33971 32.0681 1.91168 30.0046 2.8819C27.9412 3.85212 26.7078 6.01219 26.921 8.28237L26.8945 8.25443C27.0533 10.1294 26.3772 11.979 25.0466 13.3095C23.7161 14.6401 21.8665 15.3162 19.9916 15.1574L20.018 15.1853C18.4238 15.0247 16.8418 15.5884 15.7084 16.721C14.575 17.8535 14.0101 19.4351 14.1695 21.0294L14.143 21.003C14.3008 22.8777 13.6243 24.7266 12.294 26.0569C10.9637 27.3872 9.11479 28.0636 7.24009 27.9059L7.26656 27.9324C4.99638 27.7192 2.83631 28.9526 1.86609 31.016C0.895871 33.0795 1.3239 35.5298 2.93623 37.1421C4.54856 38.7544 6.99885 39.1825 9.06231 38.2123C11.1258 37.242 12.3592 35.082 12.146 32.8118L12.1739 32.8383C12.0157 30.9634 12.6919 29.1142 14.0223 27.7837C15.3528 26.4533 17.202 25.7771 19.0769 25.9353V25.9353Z" fill="#FF7143"/>
<path d="M9.22099 22.9839C10.3495 21.8488 10.9129 20.2696 10.7578 18.6765L10.7857 18.703C10.6273 16.8276 11.304 14.9778 12.6351 13.6473C13.9662 12.3167 15.8163 11.6409 17.6916 11.8001L17.6636 11.7736C19.933 11.9862 22.0921 10.7529 23.0617 8.6901C24.0313 6.62729 23.6033 4.17796 21.9916 2.56623C20.3798 0.954501 17.9305 0.526496 15.8677 1.49612C13.8049 2.46575 12.5716 4.62478 12.7842 6.89417L12.7578 6.8677C12.916 8.74254 12.2397 10.5918 10.9093 11.9222C9.5789 13.2526 7.72964 13.9289 5.85481 13.7706L5.88128 13.7971C3.38658 13.5734 1.06564 15.095 0.275915 17.4719C-0.513813 19.8489 0.435108 22.4569 2.56768 23.7705C4.70026 25.0842 7.45632 24.7585 9.22393 22.9839H9.22099Z" fill="#5454D4"/>
<path d="M54.7754 8.31628H59.143V29.5707H54.7754V8.31628Z" fill="#19191B"/>
<path fill-rule="evenodd" clip-rule="evenodd" d="M66.3584 15.1419C63.4761 16.3459 61.6041 19.169 61.6166 22.2927C61.6014 24.3409 62.4105 26.3092 63.8618 27.7547C65.3131 29.2001 67.2846 30.0013 69.3327 29.978C72.4565 29.978 75.272 28.0946 76.4645 25.2075C77.657 22.3204 76.9911 18.9991 74.7779 16.7947C72.5647 14.5904 69.2408 13.9378 66.3584 15.1419ZM69.2707 19.0359C71.1085 19.002 72.6304 20.4553 72.6813 22.2927C72.7309 23.2036 72.3973 24.0937 71.7613 24.7476C71.1252 25.4016 70.2447 25.7597 69.3327 25.7353C67.4946 25.7354 65.9997 24.2544 65.9827 22.4164C65.9657 20.5783 67.4329 19.0698 69.2707 19.0359Z" fill="#19191B"/>
<path fill-rule="evenodd" clip-rule="evenodd" d="M94.4563 28.8368V15.0133L90.2048 15.0104V16.4956C89.1677 15.2266 87.5904 14.5244 85.9533 14.603C81.96 14.7289 78.788 18.0026 78.788 21.9979C78.788 25.9932 81.96 29.2668 85.9533 29.3927C87.5904 29.4713 89.1677 28.7691 90.2048 27.5001V28.8309C90.2779 29.709 89.948 30.5728 89.3082 31.1786C88.6684 31.7844 87.7879 32.0666 86.9151 31.9456C85.5345 32.0866 84.2115 31.3556 83.596 30.1118L79.8695 32.2662C81.3274 34.6416 83.9902 36.0037 86.7695 35.7956C90.6416 35.7956 94.4563 33.728 94.4563 28.8368ZM88.1309 18.6356C89.4447 19.2281 90.2663 20.56 90.2063 22.0001C90.2335 22.9299 89.8662 23.8279 89.1953 24.4722C88.5243 25.1166 87.6122 25.4472 86.6842 25.3824C85.2429 25.3842 83.9454 24.5094 83.4065 23.1726C82.8676 21.8358 83.1957 20.3057 84.2353 19.3074C85.2748 18.309 86.817 18.0431 88.1309 18.6356Z" fill="#19191B"/>
<path fill-rule="evenodd" clip-rule="evenodd" d="M101.672 15.1419C98.7893 16.3459 96.9173 19.169 96.9298 22.2927C96.9147 24.3409 97.7238 26.3092 99.175 27.7547C100.626 29.2001 102.598 30.0013 104.646 29.978C107.77 29.978 110.585 28.0946 111.778 25.2075C112.97 22.3204 112.304 18.9991 110.091 16.7947C107.878 14.5904 104.554 13.9378 101.672 15.1419ZM104.584 19.0359C106.422 19.002 107.944 20.4553 107.995 22.2927C108.044 23.2036 107.711 24.0937 107.074 24.7476C106.438 25.4016 105.558 25.7597 104.646 25.7353C102.808 25.7354 101.313 24.2544 101.296 22.4164C101.279 20.5783 102.746 19.0698 104.584 19.0359Z" fill="#19191B"/>
<path fill-rule="evenodd" clip-rule="evenodd" d="M116.017 8.69077C115.037 9.09639 114.399 10.0519 114.399 11.1119C114.413 12.5532 115.578 13.7181 117.02 13.7325C118.079 13.7325 119.035 13.094 119.441 12.1147C119.846 11.1355 119.622 10.0083 118.873 9.25884C118.123 8.50936 116.996 8.28515 116.017 8.69077ZM119.209 15.0133H114.84L114.834 29.5722H119.209V15.0133Z" fill="#19191B"/>
<path fill-rule="evenodd" clip-rule="evenodd" d="M136.187 27.5823C137.493 26.1398 138.17 24.236 138.068 22.2927C138.171 20.349 137.494 18.4446 136.188 17.0016C134.881 15.5587 133.054 14.6964 131.109 14.6059C129.47 14.5165 127.878 15.1682 126.772 16.3809V15.0133H122.405V35.3941H126.772V28.2015C127.878 29.4151 129.47 30.0674 131.109 29.978C133.053 29.8871 134.881 29.0249 136.187 27.5823ZM130.179 18.9152C132.081 18.8834 133.653 20.391 133.7 22.2927C133.766 23.2377 133.426 24.166 132.764 24.8442C132.103 25.5225 131.184 25.8863 130.237 25.8441C128.335 25.8443 126.788 24.3108 126.772 22.4086C126.756 20.5064 128.277 18.947 130.179 18.9152Z" fill="#19191B"/>
<path d="M151.546 25.203C151.546 28.5516 148.636 29.978 145.492 29.978C142.892 30.2135 140.412 28.8408 139.231 26.5133L143.015 24.3589C143.33 25.4425 144.36 26.1583 145.486 26.0766C146.533 26.0766 147.058 25.756 147.058 25.1751C147.058 23.5722 139.894 24.4177 139.894 19.381C139.894 16.206 142.574 14.606 145.602 14.606C147.92 14.5326 150.095 15.7259 151.278 17.7207L147.552 19.7295C147.218 18.9499 146.45 18.4456 145.602 18.4486C144.844 18.4486 144.378 18.7427 144.378 19.2633C144.384 20.9236 151.546 19.8163 151.546 25.203Z" fill="#19191B"/>
<path d="M167.5 15.0133V29.5721H163.133V28.203C162.111 29.4285 160.563 30.0892 158.971 29.9795C156.03 29.9795 153.53 27.8839 153.53 23.9501V15.0133H157.897V23.3104C157.824 24.0122 158.062 24.711 158.55 25.2209C159.038 25.7308 159.725 26.0002 160.43 25.9574C162.031 25.9574 163.137 25.0265 163.137 22.9589V15.0177L167.5 15.0133Z" fill="#19191B"/>
<path d="M192.545 20.6324V29.5706H188.177V21.0104C188.177 19.5545 187.478 18.6236 186.081 18.6236C184.625 18.6236 183.809 19.6427 183.809 21.3604V29.5706H179.443V21.0104C179.443 19.5545 178.745 18.6236 177.346 18.6236C175.89 18.6236 175.075 19.6427 175.075 21.3604V29.5706H170.708V15.0118H175.075V16.3501C175.995 15.1437 177.464 14.4864 178.977 14.6045C180.497 14.5301 181.945 15.2593 182.79 16.5251C183.774 15.2018 185.368 14.4765 187.012 14.6045C190.355 14.6059 192.545 16.9927 192.545 20.6324Z" fill="#19191B"/>
<path d="M196.239 14.9236C198.029 14.9236 199.48 13.4725 199.48 11.6825C199.48 9.89241 198.029 8.44128 196.239 8.44128C194.449 8.44128 192.997 9.89241 192.997 11.6825C192.997 13.4725 194.449 14.9236 196.239 14.9236Z" fill="#19191B"/>
</svg>
